<?xml version="1.0" encoding="UTF-8"?>
<svg id="Capa_2" data-name="Capa 2" xmlns="http://www.w3.org/2000/svg" xmlns:xlink="http://www.w3.org/1999/xlink" viewBox="0 0 1684.5 1191">
  <defs>
    <style>
      .cls-1 {
        fill: #fff;
      }

      .cls-2 {
        fill: none;
      }

      .cls-3 {
        fill: #99cb96;
      }

      .cls-4 {
        clip-path: url(#clippath);
      }
    </style>
    <clipPath id="clippath">
      <rect class="cls-2" x=".5" width="1684" height="1191"/>
    </clipPath>
  </defs>
  <g id="Capa_1-2" data-name="Capa 1">
    <rect class="cls-1" y="1.5" width="1684" height="1189"/>
    <g class="cls-4">
      <g>
        <path class="cls-3" d="M274.01,951.88v39.81h23.35v-55.53c-7.9,5.32-15.68,10.56-23.35,15.72ZM-82.29,595.92v395.77h23.35v-296.27c0-8.15-.93-33.54-2.78-76.15,11.49,31.5,17.6,47.99,18.34,49.47L.39,769.65v-58.99l-49.33-114.74h-33.35Z"/>
        <path class="cls-3" d="M595.28,973.9c-4.81,0-8.71-.74-11.67-2.22-2.96-1.49-5.09-3.89-6.39-7.23-1.3-3.33-2.04-6.3-2.22-8.89-.19-2.6-.28-6.67-.28-12.23v-147.3c0-11.12-.1-19.27-.28-24.46-.18-5.02-1.48-11.5-3.92-19.47-6.68,4.51-13.33,8.99-19.96,13.46,1.28,5.6,1.92,11.68,1.92,18.24,0,15.56-1.29,25.38-3.89,29.46-3.7,5.93-10.19,9.91-19.45,11.95-9.27,2.04-32.98,4.54-71.15,7.5-2.79.23-5.53.49-8.22.79-34.12,23-67.14,45.24-98.73,66.52-1.33,6.23-2,12.88-2,19.96,0,24.83,8.25,44.29,24.74,58.37,16.49,14.08,39.56,21.12,69.2,21.12,27.05,0,49.29-5.47,66.7-16.4,17.42-10.93,32.24-28.25,44.47-51.97v13.9c0,18.15,2.32,30.66,6.95,37.52,4.63,6.85,13.25,10.28,25.85,10.28,8.89,0,16.49-1.11,22.78-3.34v-17.78c-5.92,1.48-10.74,2.22-14.45,2.22ZM553.04,880.52c0,28.53-10.1,52.25-30.3,71.15-20.19,18.89-45.48,28.34-75.87,28.34-22.6,0-40.58-5.55-53.92-16.67-13.34-11.12-20.01-26.31-20.01-45.58,0-24.83,11.12-42.25,33.35-52.25,14.83-6.67,36.88-11.49,66.15-14.45,29.28-2.97,49.66-6.3,61.14-10.01,7.42-2.22,13.9-5.74,19.46-10.56v50.03Z"/>
        <path class="cls-3" d="M773.71,727.66h-8.34c-32.98,0-59.1,12.78-78.37,38.35-10.38,13.71-16.95,28.44-19.73,44.19-2.78,15.75-4.17,35.3-4.17,58.64v122.84h-22.23v-284.59h21.68v75.04c10.38-27.42,24.27-47.15,41.69-59.2,17.42-12.04,40.58-18.07,69.48-18.07v22.79Z"/>
        <path class="cls-3" d="M901,726.55h-61.14v192.88c0,8.52.09,14.36.28,17.51.19,3.15.83,7.69,1.95,13.62,1.11,5.93,2.96,10.1,5.56,12.51,2.59,2.41,6.39,4.63,11.39,6.67,5,2.04,11.21,3.06,18.62,3.06,6.3,0,14.08-.74,23.35-2.22v20.57c-10.75,1.48-19.64,2.22-26.68,2.22-11.12,0-20.38-1.48-27.79-4.45-7.41-2.96-13.06-6.21-16.95-9.73-3.89-3.52-6.76-9.26-8.62-17.23s-2.87-14.54-3.06-19.73c-.19-5.19-.28-13.53-.28-25.01v-190.66h-52.81v-19.46h52.81v-89.49h22.23v89.49h61.14v19.45Z"/>
        <path class="cls-3" d="M1011.05,585.92h28.35l-74.48,77.82h-20.57l66.7-77.82ZM944.9,991.69v-285.71h21.12v285.71h-21.12Z"/>
        <path class="cls-3" d="M1055.51,769.9c20.75-47.06,55.77-70.59,105.06-70.59,31.5,0,56.05,9.36,73.65,28.07,17.6,18.71,26.4,44.56,26.4,77.54v186.76h-22.23v-175.65c0-64.48-27.61-96.72-82.82-96.72-37.43,0-65.22,15.56-83.38,46.69-10.75,18.9-16.12,45.02-16.12,78.38v147.3h-22.23v-284.59h21.68v62.81Z"/>
      </g>
      <g>
        <path class="cls-3" d="M1071.7,413.88v23.09h37.75v-48.58c-12.5,8.44-25.09,16.94-37.75,25.49Z"/>
        <path class="cls-3" d="M1193.62,331.54v105.43h38.09v-131.15c-12.55,8.48-25.26,17.06-38.09,25.72Z"/>
        <path class="cls-3" d="M1399.89,426.95c-14.14,10.47-31.01,15.7-50.61,15.7-26.06,0-46.71-8.41-61.97-25.22-15.25-16.81-22.88-38.36-22.88-64.64s7.85-49.22,23.55-66.81c15.7-17.59,35.69-26.39,59.96-26.39s45.1,8.63,59.79,25.89c14.7,17.26,22.05,40.81,22.05,70.65v4.01h-127.27c.45,17.37,4.79,30.79,13.03,40.25,8.24,9.46,19.71,14.2,34.41,14.2,10.47,0,18.99-2.51,25.55-7.52s11.75-12.97,15.53-23.88h36.41c-4.23,18.71-13.42,33.29-27.56,43.76ZM1378.18,300.51c-7.91-8.35-18.09-12.53-30.56-12.53s-22.55,4.01-30.23,12.03-12.42,19.6-14.2,34.74h88.52c-1.11-14.48-5.62-25.89-13.53-34.24Z"/>
        <path class="cls-3" d="M1543.03,292.33h-34.74v90.86c0,5.34.11,9.07.33,11.19s.89,4.45,2,7.02c1.11,2.56,3.06,4.29,5.85,5.18,2.78.89,6.62,1.34,11.52,1.34,6.24,0,11.25-.22,15.03-.67v30.06c-7.57.89-16.15,1.34-25.72,1.34-6.68,0-12.53-.5-17.54-1.5s-9.19-2.17-12.53-3.51c-3.34-1.34-6.12-3.62-8.35-6.85-2.23-3.23-3.95-5.9-5.18-8.02-1.23-2.12-2.12-5.85-2.67-11.19s-.83-9.35-.83-12.03v-103.22h-28.73v-27.73h28.73v-51.78h38.08v51.78h34.74v27.73Z"/>
        <path class="cls-3" d="M1643.91,259.26c21.6,0,38.8,4.23,51.61,12.69,12.81,8.46,19.21,21.6,19.21,39.42v87.52c0,4.9.61,8.24,1.84,10.02,1.22,1.78,3.62,2.67,7.18,2.67,2.67,0,5.57-.22,8.68-.67v26.72c-9.8,2.45-18.04,3.67-24.72,3.67-16.26,0-25.61-6.9-28.06-20.71-14.47,13.81-34.63,20.71-60.46,20.71-17.82,0-31.96-4.62-42.42-13.86-10.47-9.24-15.7-21.77-15.7-37.58,0-4.9.56-9.46,1.67-13.7,1.11-4.23,2.39-7.91,3.84-11.02s3.79-6.01,7.01-8.69c3.23-2.67,5.9-4.9,8.02-6.68,2.12-1.78,5.57-3.45,10.36-5.01,4.79-1.56,8.35-2.73,10.69-3.51,2.34-.78,6.4-1.61,12.19-2.51,5.79-.89,9.63-1.5,11.52-1.84,1.89-.33,5.85-.84,11.86-1.5,13.58-1.78,22.83-3.28,27.73-4.51,4.9-1.22,8.24-3.06,10.02-5.51,1.56-1.78,2.34-5.9,2.34-12.36,0-17.37-11.8-26.06-35.41-26.06-12.47,0-21.6,2.34-27.39,7.01-5.79,4.68-9.46,12.58-11.02,23.72h-36.08c4.01-38.97,29.17-58.46,75.5-58.46ZM1667.96,354.63c-3.79,1.23-6.85,2-9.19,2.34-2.34.33-6.01.83-11.02,1.5-5.01.67-8.29,1.11-9.85,1.34-4.68.67-8.35,1.28-11.02,1.84-2.67.56-5.96,1.5-9.85,2.84-3.9,1.34-6.9,2.95-9.02,4.84-2.12,1.89-3.95,4.45-5.51,7.68-1.56,3.23-2.34,7.07-2.34,11.52,0,8.24,2.73,14.59,8.18,19.04s13.08,6.68,22.88,6.68c16.92,0,29.95-4.57,39.08-13.7,5.12-5.12,7.68-15.03,7.68-29.73v-20.38c-2.9,1.56-6.24,2.95-10.02,4.18Z"/>
      </g>
      <path class="cls-1" d="M297.36,595.92v340.24c-7.9,5.32-15.68,10.56-23.35,15.72v-256.46c0-25.57,1.11-51.32,3.34-77.26-2.23,5.19-5.19,13.06-8.9,23.62-3.7,10.56-6.67,18.25-8.89,23.07l-139.52,326.84h-23.34L.39,769.65v-58.99l76.85,178.75,31.13,77.26c6.67-18.89,15.93-42.05,27.79-69.48,60.77-142.66,103.57-243.09,128.4-301.27h32.8Z"/>
      <path class="cls-3" d="M268.45,641.78c3.71-10.56,6.67-18.43,8.9-23.62-2.23,25.94-3.34,51.69-3.34,77.26v256.46C111.38,1061.31,1.82,1134.7.39,1134.77v-365.12l96.31,222.04h23.34l139.52-326.84c2.22-4.82,5.19-12.51,8.89-23.07Z"/>
      <path class="cls-1" d="M570.52,752.1c-6.68,4.51-13.33,8.99-19.96,13.46-2.9-12.73-9.12-22.95-18.64-30.67-13.71-11.12-33.72-16.68-60.03-16.68-52.99,0-81.71,25.38-86.16,76.15h-21.12c1.85-30.76,12.23-54.29,31.12-70.59,18.9-16.31,45.03-24.46,78.38-24.46,38.17,0,66.33,10.19,84.49,30.57,5.19,5.93,9.08,13.07,11.67,21.4.09.28.17.55.25.82Z"/>
      <path class="cls-1" d="M449.77,833.5c-34.12,23-67.14,45.24-98.73,66.52,8.13-37.98,41.04-60.15,98.73-66.52Z"/>
      <path class="cls-1" d="M848.24,198.79h-44.43l-91.87,238.18h43.1l23.38-63.14h94.2l22.72,63.14h44.76l-91.86-238.18ZM789.11,342.43l37.08-100.21,35.41,100.21h-72.49Z"/>
      <polygon class="cls-3" points="826.19 242.22 861.6 342.43 789.11 342.43 826.19 242.22"/>
      <path class="cls-3" d="M1684.17.11H.39v710.55l76.85,178.75,31.13,77.26c6.67-18.89,15.93-42.05,27.79-69.48,60.77-142.66,103.57-243.09,128.4-301.27h32.8v340.24c17.37-11.69,35.28-23.75,53.68-36.14,8.13-37.98,41.04-60.15,98.73-66.52,32.67-22.02,66.36-44.73,100.79-67.94-2.9-12.73-9.12-22.95-18.64-30.67-13.71-11.12-33.72-16.68-60.03-16.68-52.99,0-81.71,25.38-86.16,76.15h-21.12c1.85-30.76,12.23-54.29,31.12-70.59,18.9-16.31,45.03-24.46,78.38-24.46,38.17,0,66.33,10.19,84.49,30.57,5.19,5.93,9.08,13.07,11.67,21.4.09.28.17.55.25.82,161.3-108.77,337.5-227.7,501.18-338.22v-149.28h35.75v34.41c12.24-25.61,31.51-38.42,57.79-38.42l7.34.67v36.41c-6.68-.67-11.13-1-13.36-1-33.18,0-49.77,21.49-49.77,64.47v27.25c28.57-19.29,56.67-38.27,84.17-56.85v-66.94h38.09v41.22C1489.08,131.99,1684.17.11,1684.17.11ZM895.34,436.97l-22.72-63.14h-94.2l-23.38,63.14h-43.1l91.87-238.18h44.43l91.86,238.18h-44.76ZM1055,297.67c-6.68-.67-11.13-1-13.36-1-33.18,0-49.77,21.49-49.77,64.47v75.83h-37.75v-172.37h35.75v34.41c12.24-25.61,31.51-38.42,57.79-38.42l7.34.67v36.41ZM1193.62,235.54v-37.41h38.09v37.41h-38.09Z"/>
      <rect class="cls-1" x="1193.62" y="198.13" width="38.09" height="37.41"/>
      <path class="cls-1" d="M1231.71,264.6v41.22c-12.55,8.48-25.26,17.06-38.09,25.72v-66.94h38.09Z"/>
      <path class="cls-1" d="M1172.58,261.26v36.41c-6.68-.67-11.13-1-13.36-1-33.18,0-49.77,21.49-49.77,64.47v27.25c-12.5,8.44-25.09,16.94-37.75,25.49v-149.28h35.75v34.41c12.24-25.61,31.51-38.42,57.79-38.42l7.34.67Z"/>
      <path class="cls-1" d="M1055,261.26v36.41c-6.68-.67-11.13-1-13.36-1-33.18,0-49.77,21.49-49.77,64.47v75.83h-37.75v-172.37h35.75v34.41c12.24-25.61,31.51-38.42,57.79-38.42l7.34.67Z"/>
    </g>
  </g>
</svg>