<?xml version="1.0" encoding="UTF-8"?>
<svg id="Capa_2" data-name="Capa 2" xmlns="http://www.w3.org/2000/svg" viewBox="0 0 1600 800">
  <defs>
    <style>
      .cls-1, .cls-2 {
        fill: #fff;
      }

      .cls-2 {
        stroke: #1d1d1b;
        stroke-miterlimit: 10;
      }

      .cls-3 {
        fill: #7abc5e;
      }
    </style>
  </defs>
  <g id="Capa_1-2" data-name="Capa 1">
    <path class="cls-3" d="M238.85,386.86c2.97-8.48,5.35-14.81,7.14-18.97-1.79,20.83-2.68,41.51-2.68,62.04v229.42L0,749.65v-314.51l100.93,232.69h18.74l112.03-262.45c1.79-3.87,4.17-10.04,7.15-18.52Z"/>
    <path class="cls-3" d="M451.75,546.87c5.95-1.78,11.16-4.61,15.62-8.48v37.8l-140.91,52.3c-2.46-5.92-3.7-12.59-3.7-20.02,0-19.94,8.93-33.93,26.78-41.96,11.9-5.36,29.61-9.23,53.11-11.61,23.51-2.38,39.88-5.05,49.1-8.03Z"/>
    <rect class="cls-3" x="637.43" y="439.3" width="7.14" height="15.63"/>
    <path class="cls-3" d="M644.57,455.82v-.89h35.27v42.41l-123.23,45.73c.56-7.74,1.39-14.72,2.49-20.97,2.23-12.65,7.51-24.48,15.85-35.49,15.47-20.53,36.45-30.79,62.93-30.79h6.69Z"/>
    <path class="cls-3" d="M0,0v387.28l85.3,198.42,25,62.04c5.36-15.17,12.79-33.77,22.32-55.79,48.8-114.56,83.17-195.2,103.1-241.91h26.33v302.36l45.86-17.02c-2.89-7.43-4.34-15.81-4.34-25.13,0-41.95,29.16-65.31,87.48-70.07,30.65-2.38,49.69-4.39,57.13-6.03,7.44-1.64,12.65-4.83,15.62-9.6,2.09-3.27,3.13-11.15,3.13-23.65,0-17.26-5.51-30.35-16.52-39.28-11.01-8.93-27.07-13.39-48.2-13.39-42.55,0-65.61,20.38-69.19,61.15h-16.96c1.49-24.7,9.82-43.59,25-56.69,15.17-13.09,36.15-19.64,62.93-19.64,30.65,0,53.27,8.19,67.85,24.55,4.16,4.76,7.29,10.49,9.37,17.19,2.08,6.69,3.2,12.12,3.35,16.29.15,4.16.22,10.71.22,19.64v59.01l53.12-19.71v-110.72h17.41v60.26c8.33-22.02,19.49-37.87,33.47-47.54,13.99-9.67,32.59-14.5,55.79-14.5v1.78h35.27v-71.86h17.85v71.86h49.1v15.62h-49.1v35.8l84.36-31.31v-21h16.96v14.7l458-169.98h.01l57.69-21.41,4.77-1.77,39.37-14.61,60.26-22.37,49.68-18.43,50.95-18.91,80.26-29.79V0H0ZM798.11,404.49h-16.51l53.56-62.49h22.76l-59.81,62.49Z"/>
    <path class="cls-2" d="M1319.48,259.95c-1.52.73-3.11,1.32-4.77,1.77l4.77-1.77Z"/>
    <path class="cls-1" d="M1516.72,230.44c-2.53,5.46-3.8,11.79-3.8,19,0,14.41,4.72,25.76,14.17,34.04,9.45,8.28,22.36,12.42,38.72,12.42,12.58,0,23.98-2.64,34.19-7.91v512.01H0v-50.35l243.31-90.3,18.74-6.95,45.86-17.02,18.55-6.89,140.91-52.3,17.41-6.46,53.12-19.71,18.71-6.95,123.23-45.73,17.85-6.62,84.36-31.31,16.96-6.3,458-169.98h.01c13.48,8.52,29.52,12.77,48.12,12.77s35.21-4.38,48.36-13.15c13.15-8.77,22.16-21.23,27.04-37.41h-21.69l60.26-22.37v19.45c0,19.48,3.7,32.83,11.11,40.04,7.4,7.21,21.13,10.81,41.2,10.81,7.4,0,16.85-.49,28.35-1.46v-36.53c-2.92.39-7.31.59-13.15.59-7.99,0-12.96-1.51-14.91-4.53-1.94-3.02-2.92-8.53-2.92-16.51v-30.29l50.95-18.91c-.04.32-.07.65-.1.98h46.76c1.75-7.6,4.43-12.67,8.04-15.2,3.6-2.53,9.4-3.8,17.38-3.8,3.02,0,5.75.21,8.18.63v29.4c-5.38,1.05-13.66,2.43-24.83,4.16-7.99,1.17-14.23,2.19-18.71,3.07-4.48.88-9.93,2.48-16.36,4.82-6.43,2.34-11.3,5.02-14.61,8.04-3.32,3.02-6.24,7.25-8.77,12.71Z"/>
    <path class="cls-1" d="M1599.28,225.76c.23-.05.47-.1.72-.16v36.02c-4.89,2.6-10.44,3.89-16.65,3.89s-10.81-1.56-14.32-4.68c-3.51-3.11-5.26-7.5-5.26-13.15,0-9.74,6.14-15.88,18.41-18.41,1.17-.19,3.85-.73,8.04-1.61,4.19-.87,7.2-1.51,9.06-1.9Z"/>
    <path class="cls-1" d="M262.05,350.04v302.36l-18.74,6.95v-229.42c0-20.53.89-41.21,2.68-62.04-1.79,4.16-4.17,10.49-7.14,18.97-2.98,8.48-5.36,14.65-7.15,18.52l-112.03,262.45h-18.74L0,435.14v-47.86l85.3,198.42,25,62.04c5.36-15.17,12.79-33.77,22.32-55.79,48.8-114.56,83.17-195.2,103.1-241.91h26.33Z"/>
    <path class="cls-3" d="M501.3,653.55c-3.87,0-7-.6-9.38-1.79-2.38-1.19-4.09-3.12-5.13-5.8-1.04-2.68-1.64-5.06-1.79-7.14-.14-2.09-.22-5.36-.22-9.82v-59.27l-17.41,6.46v2.37c0,22.91-8.11,41.96-24.32,57.13-16.22,15.18-36.53,22.77-60.93,22.77-18.15,0-32.58-4.47-43.29-13.39-5.57-4.64-9.69-10.17-12.37-16.58l-18.55,6.89c3.3,8.47,8.47,15.72,15.52,21.74,13.24,11.31,31.76,16.96,55.57,16.96,21.72,0,39.57-4.39,53.56-13.17,13.98-8.78,25.89-22.69,35.71-41.73v11.16c0,14.58,1.86,24.62,5.58,30.13,3.71,5.5,10.63,8.25,20.75,8.25,7.14,0,13.24-.89,18.3-2.67v-14.29c-4.76,1.19-8.63,1.79-11.6,1.79Z"/>
    <path class="cls-1" d="M484.78,510.72v59.01l-17.41,6.46v-37.8c-4.46,3.87-9.67,6.7-15.62,8.48-9.22,2.98-25.59,5.65-49.1,8.03-23.5,2.38-41.21,6.25-53.11,11.61-17.85,8.03-26.78,22.02-26.78,41.96,0,7.43,1.24,14.1,3.7,20.02l-18.55,6.89c-2.89-7.43-4.34-15.81-4.34-25.13,0-41.95,29.16-65.31,87.48-70.07,30.65-2.38,49.69-4.39,57.13-6.03,7.44-1.64,12.65-4.83,15.62-9.6,2.09-3.27,3.13-11.15,3.13-23.65,0-17.26-5.51-30.35-16.52-39.28-11.01-8.93-27.07-13.39-48.2-13.39-42.55,0-65.61,20.38-69.19,61.15h-16.96c1.49-24.7,9.82-43.59,25-56.69,15.17-13.09,36.15-19.64,62.93-19.64,30.65,0,53.27,8.19,67.85,24.55,4.16,4.76,7.29,10.49,9.37,17.19,2.08,6.69,3.2,12.12,3.35,16.29.15,4.16.22,10.71.22,19.64Z"/>
    <path class="cls-3" d="M537.9,550.02v117.81h17.85v-98.64c0-9.49.29-18.2.86-26.12l-18.71,6.95ZM637.43,439.3v15.63h7.14v-15.63h-7.14Z"/>
    <path class="cls-3" d="M728.04,652.65c-5.95,0-10.93-.81-14.95-2.45-4.02-1.64-7.07-3.42-9.15-5.36-2.08-1.93-3.57-5.28-4.46-10.04-.9-4.76-1.42-8.41-1.57-10.94-.14-2.53-.22-7.21-.22-14.06v-119.08l-17.85,6.62v110.68c0,9.23.07,15.92.22,20.09.15,4.16.97,9.44,2.45,15.84,1.49,6.4,3.8,11.01,6.92,13.84,3.13,2.82,7.66,5.43,13.62,7.81,5.95,2.38,13.39,3.57,22.31,3.57,5.66,0,12.8-.6,21.43-1.79v-16.51c-7.44,1.19-13.69,1.78-18.75,1.78Z"/>
    <path class="cls-1" d="M746.79,439.3v15.62h-49.1v35.8l-17.85,6.62v-42.41h-35.27v.89h-6.69c-26.48,0-47.46,10.26-62.93,30.79-8.34,11.01-13.62,22.84-15.85,35.49-1.1,6.25-1.93,13.23-2.49,20.97l-18.71,6.95v-110.72h17.41v60.26c8.33-22.02,19.49-37.87,33.47-47.54,13.99-9.67,32.59-14.5,55.79-14.5v1.78h35.27v-71.86h17.85v71.86h49.1Z"/>
    <path class="cls-3" d="M782.05,459.41v208.42h16.96v-214.72l-16.96,6.3Z"/>
    <polygon class="cls-1" points="799.01 438.41 799.01 453.11 782.05 459.41 782.05 438.41 799.01 438.41"/>
    <polygon class="cls-1" points="857.92 342 798.11 404.49 781.6 404.49 835.16 342 857.92 342"/>
    <path class="cls-3" d="M870.87,489.74c16.66-37.79,44.78-56.68,84.36-56.68,25.29,0,45.01,7.51,59.14,22.54,14.13,15.03,21.2,35.78,21.2,62.26v149.97h-17.85v-141.04c0-51.77-22.17-77.66-66.51-77.66-30.05,0-52.37,12.5-66.95,37.49-8.63,15.18-12.94,36.15-12.94,62.94v118.28h-17.85v-228.53h17.41v50.44Z"/>
    <path class="cls-1" d="M879.93,291.23h-56.11l-13.44-37.99h-71.89l-13.74,37.99h-55.52l78.03-208.37h54.94l77.74,208.37ZM774.72,141.31l-23.96,72.77h47.34l-23.38-72.77Z"/>
    <path class="cls-1" d="M1002.38,182.81c-7.79-1.95-14.32-2.92-19.58-2.92-24.94,0-37.41,14.22-37.41,42.67v68.68h-49.39v-150.79h47.34l-.29,25.72c5.26-9.94,11.54-17.29,18.85-22.06s16.51-7.16,27.62-7.16c4.09,0,8.38.49,12.86,1.46v44.42Z"/>
    <path class="cls-1" d="M1126.87,182.81c-7.79-1.95-14.32-2.92-19.58-2.92-24.94,0-37.41,14.22-37.41,42.67v68.68h-49.39v-150.79h47.34l-.29,25.72c5.26-9.94,11.54-17.29,18.85-22.06s16.51-7.16,27.62-7.16c4.09,0,8.38.49,12.86,1.46v44.42Z"/>
    <path class="cls-1" d="M1194.67,120.56h-49.68v-37.41h49.68v37.41ZM1194.67,291.23h-49.68v-150.79h49.68v150.79Z"/>
    <path class="cls-1" d="M1361.98,159.87c-14.32-15.49-33.85-23.24-58.6-23.24s-43.15,7.55-58.15,22.65-22.5,34.53-22.5,58.3,7.74,43.01,23.23,57.13c3.47,3.16,7.15,5.97,11.05,8.42,0,0,0,0,.01,0l57.69-21.41c-2.8.78-5.79,1.16-8.99,1.16-10.52,0-18.85-3.07-24.98-9.21-6.14-6.13-9.31-14.76-9.5-25.86h112.22v-4.38c0-26.89-7.16-48.08-21.48-63.56ZM1271.82,199.46c3.12-19.67,13.74-29.51,31.86-29.51,9.15,0,16.41,2.68,21.77,8.03,5.36,5.36,8.43,12.52,9.2,21.48h-62.83ZM1319.48,259.95l39.37-14.61h-24.78c-3.8,6.92-8.67,11.79-14.59,14.61Z"/>
    <path class="cls-3" d="M1380.54,245.34c-4.88,16.18-13.89,28.64-27.04,37.41-13.15,8.77-29.27,13.15-48.36,13.15s-34.64-4.25-48.12-12.77l57.69-21.41c1.66-.45,3.25-1.04,4.77-1.77l39.37-14.61h21.69Z"/>
    <path class="cls-1" d="M1468.79,140.43v-46.17h-49.68v46.17h-24.84v32.15h24.84v50.39l49.68-18.43v-31.96h30.98v-32.15h-30.98Z"/>
    <path class="cls-3" d="M1499.77,255.28v36.53c-11.5.97-20.95,1.46-28.35,1.46-20.07,0-33.8-3.6-41.2-10.81-7.41-7.21-11.11-20.56-11.11-40.04v-19.45l49.68-18.43v30.29c0,7.98.98,13.49,2.92,16.51,1.95,3.02,6.92,4.53,14.91,4.53,5.84,0,10.23-.2,13.15-.59Z"/>
    <path class="cls-3" d="M1600,155.84v12.4c-2.43-.42-5.16-.63-8.18-.63-7.98,0-13.78,1.27-17.38,3.8-3.61,2.53-6.29,7.6-8.04,15.2h-46.76c.03-.33.06-.66.1-.98l80.26-29.79Z"/>
    <path class="cls-3" d="M1563.77,247.68c0,5.65,1.75,10.04,5.26,13.15,3.51,3.12,8.28,4.68,14.32,4.68s11.76-1.29,16.65-3.89v26.37c-10.21,5.27-21.61,7.91-34.19,7.91-16.36,0-29.27-4.14-38.72-12.42-9.45-8.28-14.17-19.63-14.17-34.04,0-7.21,1.27-13.54,3.8-19s5.45-9.69,8.77-12.71c3.31-3.02,8.18-5.7,14.61-8.04,6.43-2.34,11.88-3.94,16.36-4.82,4.48-.88,10.72-1.9,18.71-3.07,11.17-1.73,19.45-3.11,24.83-4.16v27.96c-.25.06-.49.11-.72.16-1.86.39-4.87,1.03-9.06,1.9-4.19.88-6.87,1.42-8.04,1.61-12.27,2.53-18.41,8.67-18.41,18.41Z"/>
    <path class="cls-1" d="M1599.95,136.79v19.63l-80.26,29.79c3.5-33.06,27.71-49.58,72.67-49.58,2.6,0,5.13.05,7.59.16Z"/>
  </g>
</svg>